God Of Gamblers [1989] (Eng Dubbed)-AKHiUgO


Do San (the God of gamblers) is a legendary gambler helped by his supernatural abilities. He undertakes to help a friend pay a debt by beating his friend's advisory at the card table. Despite being assigned a bodyguard Do San has a freak accident which leaves him with partial memory loss and at a mental stage of a child. The small time hustler Knife, his side-kick and his girl friend, being responsible for the accident takes care of the retarded Do San. After some time they discover that he has not lost all of his powers and takes him on a round at the local gambling halls. After being chased by both Knife's loan-shark and enemies closer to the home of Do San, a final showdown at the card tables may take place.


General
Format/Info                      : Audio Video Interleave
File size                        : 1.37 GiB
Duration                         : 2h 0mn
Overall bit rate                 : 1 621 Kbps

Video
Format                           : MPEG-4 Visual
Codec ID/Hint                    : XviD
Duration                         : 2h 0mn
Bit rate                         : 1 435 Kbps
Width                            : 592 pixels
Height                           : 448 pixels
Display aspect ratio             : 4/3
Frame rate                       : 25.000 fps
Resolution                       : 24 bits
Colorimetry                      : 4:2:0
Scan type                        : Progressive
Bits/(Pixel*Frame)               : 0.216
Stream size                      : 1.21 GiB (89%)

Audio
Format                           : MP3
Duration                         : 2h 0mn
Bit rate mode                    : Variable
Bit rate                         : 173 Kbps
Minimum bit rate                 : 192 Kbps
Channel(s)                       : 2 channels
Sampling rate                    : 48.0 KHz
Resolution                       : 16 bits
Stream size                      : 149 MiB (11%)
Encoding settings                : ABR
Language                         : English

Screens: 
http://img132.imageshack.us/img132/3905/vlcsnap1850445.png
 
http://img62.imageshack.us/img62/2501/vlcsnap1850544.png
 
http://img62.imageshack.us/img62/1337/vlcsnap1850635.png



PLEASE HELP YOUR FELLOW PIRATES BY SEEDING AFTER DOWNLOAD!

